<svg xmlns="http://www.w3.org/2000/svg" xmlns:xlink="http://www.w3.org/1999/xlink" width="700" zoomAndPan="magnify" viewBox="0 0 525 89.999999" height="120" preserveAspectRatio="xMidYMid meet" version="1.0"><defs><g/></defs><rect x="-52.5" width="630" fill="#ffffff" y="-9" height="107.999999" fill-opacity="1"/><rect x="-52.5" width="630" fill="#e4e2dd" y="-9" height="107.999999" fill-opacity="1"/><g fill="#2b2b2b" fill-opacity="1"><g transform="translate(99.585326, 65.414178)"><g><path d="M 30.875 0.21875 C 32.234375 0.21875 33.359375 -0.640625 34.140625 -1.703125 C 33.578125 -10.453125 32.796875 -19.28125 31.375 -27.953125 C 30.734375 -32.234375 30.015625 -36.5625 28.890625 -40.6875 C 28.53125 -42.046875 28.09375 -43.390625 27.8125 -44.75 C 27.671875 -44.890625 27.53125 -45.03125 27.3125 -45.109375 C 26.109375 -45.953125 23.96875 -46.09375 23.125 -44.53125 C 23.125 -44.46875 23.046875 -44.46875 23.046875 -44.390625 C 22.546875 -44.109375 22.125 -43.609375 21.84375 -43.109375 C 21.0625 -41.6875 21.703125 -40.34375 22.046875 -38.984375 C 22.765625 -36.421875 23.1875 -33.859375 23.6875 -31.296875 C 24.328125 -27.671875 25.109375 -23.90625 25.46875 -20.34375 L 24.328125 -22.546875 C 24.328125 -22.765625 24.328125 -22.984375 24.1875 -23.265625 C 22.765625 -26.1875 21.265625 -29.03125 19.640625 -31.796875 C 17.71875 -35.28125 15.71875 -38.703125 13.296875 -41.90625 C 11.953125 -43.6875 7.890625 -47.875 5.6875 -44.953125 C 5.328125 -44.46875 5.125 -43.890625 5.125 -43.328125 C 4.625 -43.25 4.125 -42.96875 3.765625 -42.6875 C 3.5625 -39.625 3.703125 -36.5 3.765625 -33.359375 C 3.90625 -28.53125 3.984375 -23.625 4.203125 -18.78125 C 4.40625 -12.8125 4.625 -6.828125 4.984375 -0.859375 C 5.484375 -0.21875 6.125 0.28125 6.96875 0.5 C 8.53125 1 10.171875 0.421875 11.03125 -1 C 13.9375 -1.421875 13.15625 -5.546875 13.09375 -7.75 C 13.015625 -10.59375 12.953125 -13.453125 12.8125 -16.296875 C 12.8125 -21.125 12.875 -25.96875 12.8125 -30.796875 C 13.15625 -30.3125 13.515625 -29.734375 13.9375 -29.234375 L 26.328125 -7.109375 L 26.75 -4.6875 C 27.109375 -2.84375 27.53125 -0.640625 29.453125 0.21875 C 29.875 0.421875 30.453125 0.5 30.875 0.21875 Z M 34.859375 -2.421875 C 34.9375 -3.421875 34.859375 -4.984375 34.78125 -5.484375 C 34.859375 -18.0625 33.296875 -30.65625 30.734375 -43.046875 C 30.59375 -43.75 29.734375 -43.75 29.375 -43.328125 C 29.09375 -43.046875 29.09375 -42.75 29.171875 -42.546875 C 32.078125 -29.3125 33.65625 -15.796875 34.578125 -2.203125 C 34.640625 -2.34375 34.71875 -2.421875 34.859375 -2.421875 Z M 3.703125 -7.609375 C 3.984375 -4.546875 4.265625 -4.6875 4.265625 -4.6875 L 3.625 -20.703125 C 3.484375 -25.6875 3.34375 -30.65625 3.265625 -35.5625 C 3.203125 -37.84375 3.125 -40.125 3.203125 -42.40625 C 2.703125 -41.265625 2.5625 -39.90625 2.625 -38.703125 C 2.703125 -33.578125 2.78125 -28.453125 2.984375 -23.40625 C 3.203125 -18.28125 3.265625 -12.65625 3.703125 -7.609375 Z M 11.671875 -11.09375 C 11.734375 -10.25 11.8125 -9.46875 11.8125 -8.609375 C 11.953125 -7.1875 12.015625 -5.765625 12.09375 -4.40625 C 12.171875 -3.765625 11.953125 -2.703125 11.53125 -1.984375 C 11.953125 -3.765625 11.234375 -5.40625 11.234375 -6.546875 L 11.3125 -10.8125 C 11.375 -10.890625 11.453125 -10.890625 11.453125 -10.890625 Z M 11.671875 -11.09375 "/></g></g></g><g fill="#2b2b2b" fill-opacity="1"><g transform="translate(129.393393, 65.414178)"><g><path d="M 1 -41.046875 C 1.140625 -40.34375 2.140625 -39.765625 2.78125 -39.546875 C 3.84375 -39.125 4.90625 -38.984375 6.046875 -38.984375 C 7.40625 -38.984375 8.96875 -39.34375 9.8125 -40.34375 C 11.171875 -40.625 12.515625 -41.265625 13.59375 -42.046875 C 14.15625 -42.46875 14.65625 -43.1875 14.375 -43.96875 C 13.65625 -45.8125 12.234375 -46.875 10.3125 -47.375 C 8.109375 -47.953125 5.90625 -47.09375 4.0625 -45.8125 C 3.90625 -45.75 3.765625 -45.59375 3.625 -45.453125 C 2.921875 -44.953125 2.34375 -44.390625 1.84375 -43.6875 C 1.359375 -42.96875 0.71875 -41.96875 1 -41.046875 Z M 5.765625 -39.34375 C 4.90625 -39.40625 4.125 -39.546875 3.34375 -39.84375 C 2.84375 -39.984375 2.421875 -40.265625 1.984375 -40.625 C 1.421875 -41.125 1.5 -41.625 1.78125 -42.25 C 2.0625 -42.75 2.34375 -43.1875 2.703125 -43.609375 C 1.984375 -41.96875 2.78125 -40.34375 4.84375 -39.90625 C 6.46875 -39.625 7.40625 -39.765625 8.25 -39.984375 C 8.328125 -39.984375 7.828125 -39.34375 5.765625 -39.34375 Z M 13.15625 -3.765625 C 13.296875 -3.0625 14.4375 -3.125 14.375 -3.84375 C 13.015625 -13.9375 12.453125 -24.046875 12.734375 -34.21875 C 12.734375 -34.296875 12.234375 -34.21875 12.234375 -34.078125 C 11.953125 -29.03125 11.953125 -21.5625 12.171875 -16.5 C 12.015625 -16.5 11.8125 -19 11.671875 -18.921875 C 11.59375 -19.5625 11.53125 -20.203125 11.53125 -20.703125 C 11.453125 -23.328125 11.3125 -25.96875 11.3125 -28.53125 C 11.3125 -31.15625 11.453125 -33.71875 11.453125 -36.359375 C 11.375 -37 10.8125 -37.28125 10.3125 -37.203125 C 9.171875 -40.046875 5.546875 -37.421875 4.0625 -36.421875 C 3.84375 -36.203125 3.625 -36 3.484375 -35.71875 C 2.625 -34.859375 2.203125 -33.5 1.984375 -32.15625 C 1.703125 -29.59375 1.78125 -26.96875 1.78125 -24.40625 C 1.703125 -19.0625 2.0625 -13.796875 2.703125 -8.53125 C 2.984375 -6.546875 3.0625 -4.40625 4.546875 -2.984375 C 4.90625 -2.703125 5.265625 -2.484375 5.625 -2.34375 L 5.765625 -2.140625 C 7.109375 -0.78125 9.25 -0.359375 10.953125 -1.203125 C 11.59375 -1.5 11.734375 -2.0625 11.671875 -2.5625 C 12.234375 -2.78125 12.8125 -3.203125 13.15625 -3.765625 Z M 5.265625 -32.796875 C 5.265625 -32.9375 5.546875 -33.359375 5.765625 -33.5 L 5.828125 -33.5 C 5.046875 -31.234375 4.90625 -28.59375 4.90625 -26.1875 C 4.84375 -22.984375 4.90625 -19.78125 4.90625 -16.578125 L 4.6875 -16.578125 C 4.484375 -18.28125 4.265625 -19.984375 4.125 -21.703125 C 4.125 -21.765625 4.125 -21.765625 4.125 -21.84375 L 4.125 -22.546875 C 4.265625 -25.828125 4.203125 -29.59375 5.265625 -32.796875 Z M 5.265625 -32.796875 "/></g></g></g><g fill="#2b2b2b" fill-opacity="1"><g transform="translate(137.858429, 65.414178)"><g><path d="M 39.546875 -28.8125 C 39.984375 -29.953125 40.1875 -31.296875 39.84375 -32.515625 C 39.34375 -34.21875 37.5625 -35.140625 35.859375 -34.9375 C 32.515625 -34.5 29.234375 -33.578125 25.96875 -32.796875 C 22.6875 -32.015625 19.421875 -31.15625 16.21875 -30.234375 C 16.078125 -30.15625 15.9375 -30.15625 15.859375 -30.09375 C 14.4375 -29.734375 13.9375 -28.53125 14.078125 -27.390625 L 13.65625 -27.171875 C 10.890625 -25.6875 12.8125 -21.34375 15.796875 -22.125 C 19 -22.984375 22.125 -23.96875 25.328125 -24.6875 C 26.890625 -25.046875 28.453125 -25.328125 30.015625 -25.6875 L 30.3125 -25.6875 C 29.671875 -24.546875 29.03125 -23.40625 28.3125 -22.265625 C 26.8125 -19.84375 25.109375 -17.640625 23.046875 -15.65625 C 21.265625 -13.9375 19.0625 -12.453125 16.796875 -11.453125 C 16.359375 -11.3125 15.859375 -11.09375 15.359375 -10.953125 C 13.65625 -10.53125 11.953125 -10.390625 10.25 -10.671875 L 9.3125 -10.890625 C 7.609375 -11.953125 6.96875 -14.234375 7.046875 -16.359375 C 7.046875 -18.921875 7.890625 -21.5625 8.96875 -23.828125 C 11.09375 -28.390625 14.71875 -32.234375 19.140625 -34.640625 C 21.703125 -36 24.546875 -36.921875 27.390625 -37.34375 C 28.8125 -37.5625 30.234375 -37.640625 31.65625 -37.640625 C 33.296875 -37.5625 34.859375 -37.703125 36.421875 -37.640625 C 36.921875 -37.640625 37.203125 -38.125 37.0625 -38.5625 C 37.84375 -38.703125 38.5625 -38.90625 38.84375 -39.703125 C 39.703125 -42.25 36.421875 -43.046875 34.640625 -43.390625 C 29.375 -44.46875 23.765625 -43.609375 18.640625 -42.25 C 18.0625 -42.109375 17.78125 -41.765625 17.71875 -41.328125 C 12.953125 -39.84375 8.671875 -36.703125 5.40625 -32.9375 C 1.78125 -28.734375 -0.921875 -23.265625 -0.078125 -17.578125 C 0.28125 -14.796875 1.5 -12.3125 3.265625 -10.390625 C 4.203125 -8.671875 5.484375 -7.25 7.046875 -6.328125 C 8.328125 -5.546875 9.75 -5.265625 11.171875 -5.1875 C 11.234375 -4.546875 12.3125 -4.34375 12.875 -4.265625 C 14.796875 -4.265625 16.640625 -4.484375 18.5 -4.90625 C 22.34375 -5.828125 25.75 -7.75 28.8125 -10.109375 C 32.234375 -12.8125 35 -16.15625 37.34375 -19.84375 C 37.484375 -20.125 37.640625 -20.421875 37.78125 -20.703125 L 37.984375 -21.34375 C 38.34375 -22.484375 38.5625 -23.625 38.84375 -24.75 C 38.703125 -24.90625 38.625 -25.046875 38.5625 -25.1875 C 33.796875 -14.796875 24.609375 -8.671875 21.765625 -7.328125 C 20.28125 -6.546875 18.640625 -5.90625 17 -5.484375 C 16.4375 -5.328125 12.234375 -4.40625 11.53125 -5.1875 C 13.09375 -5.1875 14.796875 -5.484375 16.296875 -5.90625 L 17.078125 -6.125 C 20.0625 -6.90625 22.90625 -8.390625 25.46875 -10.171875 C 27.03125 -11.234375 28.453125 -12.59375 29.734375 -13.9375 C 32.234375 -16.21875 34.359375 -18.859375 36.140625 -21.765625 C 37.5625 -23.96875 38.625 -26.328125 39.546875 -28.8125 Z M 39.546875 -28.8125 "/></g></g></g><g fill="#2b2b2b" fill-opacity="1"><g transform="translate(171.223677, 65.414178)"><g><path d="M 36.359375 -22.34375 C 38.125 -24.265625 37.84375 -27.953125 35.078125 -28.890625 C 34.4375 -29.03125 33.859375 -29.234375 33.296875 -29.3125 L 33.296875 -30.875 C 33.359375 -32.578125 33.359375 -34.296875 33.296875 -35.921875 C 33.296875 -36.140625 33.359375 -36.359375 33.296875 -36.5625 C 33.15625 -39.0625 33.4375 -42.1875 32.078125 -44.390625 C 30.65625 -46.8125 27.671875 -46.875 25.546875 -45.453125 C 23.125 -43.828125 23.546875 -40.984375 23.96875 -38.484375 C 24.109375 -35.5625 24.328125 -32.578125 24.46875 -29.671875 C 23.6875 -29.59375 22.984375 -29.453125 22.203125 -29.375 C 19.703125 -29.171875 17.21875 -28.953125 14.71875 -28.59375 L 14.578125 -28.59375 C 14.375 -31.796875 14.15625 -35.078125 13.9375 -38.34375 L 13.734375 -41.765625 C 13.65625 -42.40625 13.375 -43.75 12.65625 -44.03125 C 12.375 -44.171875 12.171875 -44.25 11.875 -44.25 L 11.875 -44.390625 C 11.8125 -46.03125 10.03125 -47.171875 8.53125 -46.953125 C 6.96875 -46.734375 5.765625 -45.25 5.96875 -43.609375 C 6.6875 -38.203125 6.828125 -32.65625 6.90625 -27.171875 L 6.765625 -27.171875 C 6.6875 -27.171875 6.609375 -27.03125 6.546875 -26.96875 C 6.328125 -29.59375 6.046875 -32.375 5.765625 -35 C 5.40625 -38.484375 5.1875 -42.046875 4.484375 -45.453125 C 4.484375 -45.59375 4.265625 -45.59375 4.265625 -45.453125 C 4.125 -42.109375 4.40625 -38.703125 4.484375 -35.359375 C 4.625 -32.4375 4.6875 -29.515625 4.765625 -26.671875 C 3.703125 -26.328125 2.78125 -25.75 2.203125 -24.828125 C 1.78125 -24.46875 1.359375 -24.046875 1.0625 -23.625 C -0.640625 -21.265625 1.84375 -18.359375 4.265625 -19.34375 L 4.984375 -19.640625 C 5.1875 -14.375 5.265625 -9.03125 5.6875 -3.765625 C 5.6875 -3.265625 6.1875 -2.984375 6.609375 -2.984375 C 6.765625 -2.625 6.90625 -2.28125 7.109375 -1.921875 C 8.46875 0.5625 11.09375 0.28125 12.875 -1.5625 C 13.734375 -2.484375 13.9375 -4.125 14.078125 -5.328125 C 14.15625 -5.90625 14.15625 -6.546875 14.234375 -7.109375 L 14.234375 -7.328125 C 14.65625 -9.609375 14.578125 -12.015625 14.578125 -14.375 C 14.578125 -16.4375 14.515625 -18.5 14.4375 -20.5625 C 17.140625 -20.703125 19.921875 -20.765625 22.625 -20.765625 C 23.125 -20.765625 23.546875 -20.765625 24.046875 -20.765625 L 24.046875 -18.140625 C 24.046875 -15.4375 24.109375 -12.65625 24.265625 -9.953125 C 24.328125 -7.1875 24.46875 -4.484375 24.6875 -1.703125 C 24.75 -0.78125 24.90625 0.421875 25.546875 1.140625 C 26.328125 2.140625 27.609375 2.5625 28.890625 1.78125 C 29.234375 1.5625 29.59375 1.28125 29.8125 1 C 29.875 1 29.875 1 29.875 0.921875 C 31.375 0.078125 31.65625 -2.34375 31.875 -3.90625 C 32.078125 -5.625 32.234375 -7.328125 32.375 -9.109375 C 32.578125 -12.59375 32.796875 -16.15625 32.9375 -19.640625 C 34.5 -19.421875 36.140625 -20.421875 36.359375 -22.125 Z M 17 -22.6875 C 19.34375 -22.84375 21.703125 -22.765625 24.046875 -22.6875 L 24.046875 -22.34375 C 23.625 -22.34375 23.125 -22.34375 22.625 -22.40625 C 19.921875 -22.40625 17.140625 -22.265625 14.375 -21.984375 L 14.375 -22.265625 C 14.515625 -22.34375 14.578125 -22.484375 14.65625 -22.625 C 15.4375 -22.625 16.21875 -22.6875 17 -22.6875 Z M 17 -22.6875 "/></g></g></g><g fill="#2b2b2b" fill-opacity="1"><g transform="translate(202.525764, 65.414178)"><g><path d="M 40.625 -41.90625 C 42.328125 -42.609375 42.40625 -45.3125 40.765625 -46.234375 C 40.625 -46.390625 40.484375 -46.453125 40.34375 -46.53125 C 40.484375 -46.59375 40.6875 -46.59375 40.828125 -46.59375 C 41.546875 -46.734375 41.328125 -47.953125 40.6875 -47.875 C 39.625 -47.734375 38.5625 -47.671875 37.484375 -47.515625 C 37.0625 -47.59375 36.640625 -47.515625 36.28125 -47.515625 C 35.5625 -47.453125 34.859375 -47.375 34.078125 -47.234375 C 24.1875 -46.390625 14.234375 -46.171875 4.265625 -46.734375 C 4.0625 -46.8125 3.984375 -46.390625 4.203125 -46.390625 C 8.03125 -45.75 11.875 -45.3125 15.71875 -45.109375 C 15.71875 -45.03125 15.65625 -44.953125 15.65625 -44.890625 C 11.734375 -44.890625 7.890625 -45.171875 3.984375 -45.53125 C 2.421875 -45.671875 1 -44.328125 0.5625 -42.890625 C 0.140625 -41.1875 1 -39.484375 2.421875 -38.703125 C 2.84375 -37.5625 3.765625 -36.5625 4.6875 -35.921875 C 5.96875 -35.140625 7.546875 -34.9375 9.03125 -34.71875 C 10.890625 -34.578125 12.8125 -34.5 14.71875 -34.5 C 15.65625 -34.5 16.578125 -34.5 17.5 -34.5 L 17.5 -32.234375 L 17.359375 -29.09375 C 17.21875 -25.390625 17 -21.703125 16.796875 -18.0625 C 16.640625 -14.4375 16.578125 -10.75 16.796875 -7.109375 C 16.9375 -4.34375 17.578125 -1.0625 20.5625 -0.140625 C 22.046875 0.28125 23.828125 -0.5625 24.328125 -2.140625 C 24.828125 -3.5625 24.90625 -5.546875 25.1875 -6.828125 L 25.1875 -4.125 C 25.109375 -3.125 25.109375 -2.140625 25.046875 -1.140625 L 25.046875 -1 C 26.328125 -1.984375 26.609375 -3.703125 26.75 -5.40625 C 26.671875 -7.890625 26.53125 -10.390625 26.46875 -12.875 C 26.46875 -17.21875 26.390625 -21.5625 26.390625 -25.890625 C 26.390625 -29.03125 26.46875 -32.15625 26.46875 -35.28125 C 30.09375 -35.78125 33.65625 -36.421875 37.28125 -37.140625 C 37.484375 -37.140625 37.640625 -37.28125 37.78125 -37.421875 C 38.125 -37.484375 38.5625 -37.640625 38.84375 -37.84375 C 39.984375 -38.625 40.265625 -39.90625 40.34375 -41.1875 C 40.484375 -41.40625 40.546875 -41.625 40.625 -41.90625 Z M 9.03125 -36.421875 C 7.328125 -36.5 5.484375 -37 4.34375 -38.0625 C 7.109375 -37.203125 9.953125 -36.703125 12.8125 -36.421875 C 11.53125 -36.359375 10.25 -36.359375 9.03125 -36.421875 Z M 9.03125 -36.421875 "/></g></g></g><g fill="#2b2b2b" fill-opacity="1"><g transform="translate(237.313879, 65.414178)"><g><path d="M 34.078125 -25.828125 C 34 -27.53125 34 -29.234375 34.078125 -31.015625 C 34.359375 -34.359375 35.078125 -37.84375 34.640625 -41.1875 C 34.4375 -43.109375 33.21875 -44.671875 31.15625 -44.671875 C 29.3125 -44.671875 27.671875 -43.109375 27.671875 -41.1875 C 27.75 -39.984375 27.75 -38.765625 27.75 -37.5625 L 27.390625 -37.921875 C 25.96875 -39.203125 24.40625 -40.265625 22.84375 -41.265625 C 19.5 -43.46875 16 -45.03125 12.171875 -46.171875 C 11.734375 -46.3125 11.375 -46.3125 11.09375 -46.234375 C 9.609375 -46.734375 8.03125 -47.171875 6.46875 -47.3125 C 4.0625 -47.515625 1.984375 -46.03125 1.421875 -43.6875 C 0.859375 -41.328125 2.140625 -39.265625 3.421875 -37.484375 C 6.046875 -34.078125 9.109375 -31.09375 12.453125 -28.390625 L 13.515625 -27.53125 C 14.515625 -26.53125 15.515625 -25.546875 16.4375 -24.46875 C 18.859375 -21.984375 21.125 -19.421875 23.328125 -16.796875 C 24.046875 -15.9375 24.75 -15.078125 25.390625 -14.234375 C 25.546875 -13.796875 25.75 -13.453125 25.890625 -13.09375 C 26.1875 -12.515625 26.8125 -11.171875 26.46875 -10.390625 C 26.46875 -10.171875 26.46875 -9.953125 26.25 -9.75 C 25.6875 -8.890625 24.265625 -8.75 23.328125 -8.671875 C 21.765625 -8.53125 20.28125 -8.53125 18.78125 -8.671875 C 17.921875 -8.75 17.078125 -8.890625 16.21875 -9.171875 C 15.359375 -9.8125 14.578125 -10.59375 13.875 -11.3125 C 12.59375 -12.65625 11.734375 -14.4375 11.09375 -16.15625 C 9.46875 -20.84375 9.25 -25.890625 7.75 -30.59375 C 7.1875 -32.296875 5.765625 -32.9375 4.0625 -32.71875 C 2.625 -32.515625 1.5625 -31.15625 1.28125 -29.875 C 0.859375 -27.8125 1.28125 -25.609375 1.5625 -23.625 C 1.84375 -21.34375 2.140625 -19.0625 2.703125 -16.859375 C 3.765625 -12.953125 4.546875 -8.96875 4.984375 -4.984375 C 5.125 -4.265625 5.328125 -3.625 5.765625 -3.125 C 5.96875 -1.84375 6.6875 -0.640625 7.46875 0.140625 C 8.1875 0.859375 9.3125 0.859375 10.03125 0.140625 C 10.953125 -0.640625 11.453125 -1.78125 11.734375 -2.984375 C 13.09375 -2.140625 14.578125 -1.5 16.15625 -1.140625 C 18.421875 -0.5 21.125 -0.21875 23.546875 -0.5625 L 23.765625 -0.5625 C 28.25 -0.78125 33.078125 -4.125 33.21875 -8.75 C 33.5 -10.59375 33.078125 -12.515625 32.296875 -14.296875 C 31.875 -16.21875 30.875 -18 29.59375 -19.640625 C 27.75 -21.984375 25.609375 -24.1875 23.546875 -26.390625 C 21.40625 -28.734375 19.140625 -31.015625 16.859375 -33.21875 L 13.9375 -36 C 15.796875 -35.5625 17.71875 -34.9375 19.5 -34.140625 C 22.90625 -32.578125 26.03125 -30.375 28.09375 -27.3125 C 28.171875 -27.3125 28.171875 -27.25 28.25 -27.25 C 28.671875 -23.90625 29.875 -19.203125 33.359375 -20.0625 C 34.359375 -20.34375 34.9375 -21.40625 34.640625 -22.34375 C 34.4375 -23.546875 34.140625 -24.609375 34.078125 -25.828125 Z M 34.078125 -25.828125 "/></g></g></g><g fill="#2b2b2b" fill-opacity="1"><g transform="translate(267.050819, 65.414178)"><g><path d="M 27.109375 -8.1875 C 27.109375 -8.25 27.03125 -8.25 27.03125 -8.25 C 29.953125 -13.734375 29.953125 -20.765625 29.09375 -26.671875 C 28.3125 -32.015625 26.25 -37.203125 22.765625 -41.328125 C 20.984375 -43.390625 18.359375 -44.75 15.578125 -44.609375 C 12.375 -44.46875 9.890625 -42.46875 8.03125 -40.046875 C 6.328125 -37.78125 5.6875 -34.71875 5.265625 -32.015625 C 5.1875 -31.875 5.1875 -31.796875 5.1875 -31.65625 C 4.765625 -30.09375 4.484375 -28.53125 4.265625 -26.890625 L 4.265625 -26.671875 C 4.0625 -25.890625 3.84375 -25.1875 3.484375 -24.40625 C 3.5625 -26.890625 3.984375 -31.59375 4.484375 -34.078125 C 4.765625 -35.5625 5.265625 -37 5.828125 -38.34375 C 6.46875 -39.765625 7.46875 -40.984375 8.1875 -42.328125 C 8.1875 -42.40625 8.109375 -42.46875 8.03125 -42.40625 C 7.046875 -41.765625 6.265625 -40.40625 5.625 -39.40625 C 4.90625 -38.125 4.40625 -36.78125 3.984375 -35.421875 C 2.984375 -32.375 2.78125 -29.171875 2.625 -25.96875 C 2.421875 -19.5 2.921875 -12.953125 5.1875 -6.828125 C 5.328125 -6.125 5.625 -5.484375 5.96875 -4.84375 C 5.96875 -4.765625 5.96875 -4.6875 6.046875 -4.625 C 6.046875 -4.546875 6.125 -4.546875 6.125 -4.484375 C 7.46875 -2.28125 9.671875 -0.71875 12.171875 -0.078125 C 13.09375 0.140625 14.015625 0.140625 14.9375 0.078125 C 15.15625 0.078125 15.4375 0.078125 15.65625 0.140625 C 17.921875 0.21875 20.125 -0.71875 21.84375 -2.140625 C 22.046875 -1.78125 22.203125 -1.5 22.40625 -1.203125 C 22.40625 -1.203125 22.484375 -1.140625 22.546875 -1.140625 C 22.984375 -0.078125 24.046875 0.28125 24.90625 -0.078125 C 25.328125 0.78125 26.609375 1 27.109375 0.078125 C 27.171875 0 27.171875 0 27.171875 -0.078125 C 27.8125 -0.28125 28.3125 -0.78125 28.53125 -1.5 C 28.59375 -1.5625 28.671875 -1.5625 28.671875 -1.640625 C 29.375 -2.625 28.8125 -4.125 28.453125 -5.046875 L 27.609375 -7.046875 C 27.453125 -7.46875 27.25 -7.828125 27.109375 -8.1875 Z M 19.921875 -36.28125 C 24.546875 -31.015625 26.109375 -23.1875 25.890625 -16.4375 C 25.828125 -14.9375 25.6875 -13.375 25.328125 -11.875 C 24.6875 -13.15625 24.046875 -14.296875 23.328125 -15.515625 C 22.625 -16.796875 21.625 -17.78125 20.421875 -18.5625 C 19 -19.421875 16.640625 -19.5625 15.4375 -18.28125 C 14.296875 -17.078125 14.15625 -15.9375 14.9375 -14.4375 C 15.359375 -13.796875 16.15625 -13.15625 16.640625 -12.59375 C 18 -11.234375 19.921875 -8.328125 19.78125 -8.03125 C 18.5625 -9.46875 16.578125 -11.875 15.21875 -13.234375 C 15.15625 -13.296875 15.015625 -13.15625 15.078125 -13.09375 C 16.9375 -10.390625 19 -7.828125 20.984375 -5.1875 C 19.78125 -4.34375 18.359375 -3.90625 17 -3.90625 C 14.9375 -4.6875 14.515625 -7.109375 14.015625 -9.03125 C 13.453125 -11.234375 13.15625 -13.515625 12.953125 -15.859375 C 12.453125 -20.484375 12.8125 -25.328125 13.796875 -29.875 C 13.9375 -30.515625 13.734375 -31.015625 13.296875 -31.296875 C 13.015625 -31.515625 12.734375 -31.65625 12.453125 -31.59375 C 12.65625 -32.296875 12.875 -33.015625 13.15625 -33.65625 C 13.734375 -35.078125 14.515625 -36.421875 15.578125 -37.484375 C 16.15625 -37.984375 16.71875 -38.28125 17.359375 -38.5625 C 18.28125 -38.0625 19.140625 -37.203125 19.921875 -36.28125 Z M 19.921875 -36.28125 "/></g></g></g><g fill="#2b2b2b" fill-opacity="1"><g transform="translate(291.878838, 65.414178)"><g><path d="M 34.296875 -13.734375 C 35.921875 -19.421875 36.203125 -25.390625 35.921875 -31.296875 L 35.921875 -34.140625 C 35.921875 -35.859375 35.640625 -37.5625 35.5 -39.265625 C 35.28125 -41.90625 35 -45.3125 31.796875 -45.671875 C 31.015625 -45.75 30.375 -44.953125 30.375 -44.25 L 30.375 -43.53125 C 28.59375 -44.53125 26.03125 -43.109375 26.109375 -40.984375 C 26.1875 -34.578125 26.25 -28.25 25.828125 -21.90625 C 25.6875 -19.5 25.828125 -15.015625 24.1875 -12.59375 C 23.1875 -11.734375 21.984375 -11.171875 20.625 -10.890625 C 19.34375 -10.953125 18.28125 -11.53125 17.28125 -12.3125 C 15.359375 -17.421875 14.078125 -22.765625 13.734375 -28.25 C 13.59375 -30.875 13.59375 -33.578125 13.796875 -36.28125 C 13.9375 -38.484375 15.078125 -41.125 14.296875 -43.25 C 13.65625 -44.8125 12.171875 -46.03125 10.453125 -46.234375 C 6.1875 -46.875 3.984375 -42.546875 3.203125 -38.984375 C 1.0625 -29.8125 1.421875 -19.84375 4.90625 -11.03125 C 5.328125 -9.953125 6.328125 -9.609375 7.1875 -9.671875 C 7.96875 -8.03125 8.96875 -6.46875 10.171875 -5.046875 C 13.734375 -0.921875 20.34375 1.703125 25.25 -1.421875 C 26.46875 -1.984375 27.75 -3.125 28.390625 -3.84375 C 28.53125 -3.984375 28.671875 -4.125 28.890625 -4.265625 C 31.59375 -6.765625 33.21875 -10.25 34.296875 -13.734375 Z M 13.515625 -38.765625 C 12.453125 -32.515625 12.515625 -26.109375 13.65625 -19.84375 C 13.59375 -19.921875 13.515625 -19.921875 13.453125 -19.921875 C 13.234375 -20.765625 13.015625 -21.703125 12.875 -22.625 C 11.953125 -27.3125 11.953125 -32.234375 12.515625 -37.0625 C 12.8125 -37.640625 12.953125 -38.28125 13.09375 -38.90625 C 13.15625 -38.765625 13.375 -38.703125 13.515625 -38.765625 Z M 13.515625 -38.765625 "/></g></g></g><g fill="#2b2b2b" fill-opacity="1"><g transform="translate(321.686898, 65.414178)"><g><path d="M 26.03125 -2.140625 C 27.671875 2.984375 32.9375 2.84375 32.15625 -3.5625 C 31.59375 -7.828125 30.375 -13.59375 29.453125 -17.78125 C 33.359375 -20.28125 32.578125 -26.671875 27.171875 -27.3125 C 26.671875 -31.59375 26.25 -42.328125 26.1875 -41.625 C 25.890625 -39.265625 25.75 -36.78125 25.6875 -34.359375 C 25.609375 -34.359375 25.609375 -34.359375 25.546875 -34.4375 C 25.25 -37.203125 24.96875 -40.125 24.75 -42.96875 C 24.546875 -45.25 23.046875 -46.671875 20.984375 -46.8125 C 20.421875 -47.953125 19 -48.796875 17.78125 -48.734375 C 14.15625 -48.65625 12.734375 -44.25 11.453125 -41.46875 C 9.609375 -37.0625 8.46875 -32.4375 7.46875 -27.75 C -1 -26.46875 -1 -18.703125 3.5625 -17.578125 C 3.625 -17.359375 3.5625 -17.078125 3.484375 -16.9375 C 4.0625 -16.9375 4.765625 -17 5.40625 -17.078125 C 4.34375 -12.953125 3.625 -8.828125 3.0625 -4.625 C 2.140625 2.0625 10.953125 3.0625 11.53125 -3.421875 L 11.953125 -6.609375 C 11.953125 -6.609375 13.15625 -13.875 14.078125 -17.359375 L 14.71875 -17.359375 C 13.375 -13.15625 12.734375 -8.828125 12.375 -4.546875 C 12.3125 -3.703125 13.515625 -3.703125 13.515625 -4.546875 C 13.875 -8.890625 14.65625 -13.09375 15.71875 -17.359375 L 21.265625 -17.421875 C 21.84375 -14.875 24.6875 -2.625 26.03125 -2.140625 Z M 15.515625 -26.609375 C 16.15625 -29.953125 17 -32.796875 18.140625 -36.78125 C 18.859375 -33.5 19.203125 -28.671875 19.5 -26.890625 C 18.5 -26.8125 16.5 -26.75 15.515625 -26.609375 Z M 15.515625 -26.609375 "/></g></g></g><g fill="#2b2b2b" fill-opacity="1"><g transform="translate(348.649235, 65.414178)"><g><path d="M 45.3125 -4.546875 C 46.03125 -18.421875 44.328125 -32.375 41.765625 -45.953125 C 41.6875 -46.03125 41.546875 -46.03125 41.546875 -45.890625 C 41.90625 -41.765625 42.109375 -37.5625 42.25 -33.359375 C 42.1875 -33.359375 42.046875 -33.296875 41.96875 -33.296875 L 40.90625 -43.46875 C 40.6875 -45.53125 39.34375 -47.234375 37.140625 -47.234375 C 35.140625 -47.234375 33.15625 -45.53125 33.296875 -43.46875 C 33.796875 -36.921875 34.578125 -30.375 35.140625 -23.828125 L 35.5625 -19.921875 C 32.71875 -25.96875 29.3125 -31.734375 25.46875 -37.203125 C 23.96875 -39.984375 22.34375 -43.1875 19.5625 -44.75 C 19.203125 -44.46875 18.921875 -44.109375 18.703125 -43.75 C 18.0625 -44.109375 17.421875 -44.25 16.796875 -44.03125 C 14.578125 -43.1875 14.875 -41.328125 14.796875 -39.34375 C 14.796875 -37.28125 15.015625 -35.21875 15.21875 -33.15625 C 15.578125 -29.234375 15.578125 -25.390625 15.21875 -21.484375 C 15.015625 -19.84375 14.796875 -18.21875 14.4375 -16.578125 C 14.234375 -16.796875 14.078125 -17.078125 14.015625 -17.359375 C 13.15625 -22.984375 12.65625 -28.59375 12.171875 -34.296875 C 11.8125 -35.859375 11.453125 -37.421875 11.03125 -38.984375 C 10.59375 -40.6875 10.171875 -42.609375 9.53125 -44.25 C 8.609375 -46.53125 5.96875 -46.671875 5.96875 -45.03125 C 5.96875 -44.953125 6.125 -44.890625 6.125 -45.03125 C 6.546875 -46.453125 8.03125 -45.171875 8.328125 -44.46875 C 8.53125 -43.890625 8.609375 -43.328125 8.671875 -42.75 C 8.671875 -42.46875 8.75 -42.25 8.828125 -42.046875 C 7.890625 -43.328125 6.6875 -44.390625 5.265625 -45.109375 C 3.34375 -46.09375 1.703125 -44.53125 1.984375 -42.609375 C 2.84375 -36.0625 3.765625 -29.59375 4.625 -23.125 C 5.40625 -16.5 6.125 -9.8125 7.25 -3.265625 C 7.328125 -2.78125 7.546875 -2.421875 7.890625 -2.140625 C 8.109375 -1.140625 8.890625 -0.421875 9.8125 -0.140625 C 11.375 0.28125 12.65625 -0.640625 13.15625 -2.0625 C 13.296875 -2.484375 13.515625 -2.921875 13.65625 -3.34375 C 13.65625 -2.5625 14.015625 -1.984375 14.65625 -1.5625 C 14.796875 -1.5 14.9375 -1.5625 15.015625 -1.703125 C 16.796875 -4.0625 17.921875 -6.96875 19 -9.671875 C 20.0625 -12.734375 20.84375 -15.796875 21.484375 -18.921875 C 22.046875 -21.40625 22.484375 -23.96875 22.90625 -26.53125 C 23.546875 -25.75 24.109375 -24.96875 24.6875 -24.1875 C 26.25 -21.984375 27.75 -19.703125 29.09375 -17.421875 C 31.796875 -12.875 34.140625 -8.1875 36 -3.265625 C 36.78125 -1.359375 39.0625 -0.359375 40.765625 -1.703125 C 41.828125 -1.984375 42.75 -2.703125 42.96875 -3.90625 C 43.046875 -4.203125 43.046875 -4.484375 43.109375 -4.765625 L 43.109375 -4.546875 C 43.1875 -3.125 45.25 -3.125 45.3125 -4.546875 Z M 13.734375 -3.484375 C 13.796875 -3.765625 13.875 -4.0625 14.015625 -4.265625 C 15.21875 -6.265625 16.296875 -8.390625 17.078125 -10.53125 C 16.4375 -7.6875 15.515625 -4.90625 14.65625 -2.140625 C 14.078125 -2.34375 13.796875 -2.78125 13.875 -3.421875 C 13.875 -3.484375 13.796875 -3.5625 13.734375 -3.484375 Z M 13.734375 -3.484375 "/></g></g></g><g fill="#2b2b2b" fill-opacity="1"><g transform="translate(389.840268, 65.414178)"><g><path d="M 36.28125 -2.78125 C 37.984375 -3.265625 37.78125 -5.40625 37.484375 -6.828125 C 36.78125 -9.609375 35.859375 -12.3125 34.640625 -14.9375 C 32.296875 -20.34375 28.8125 -25.1875 24.46875 -29.234375 C 24.046875 -29.671875 23.328125 -29.171875 23.40625 -28.671875 C 23.046875 -28.953125 22.765625 -29.234375 22.40625 -29.515625 L 24.265625 -30.515625 C 28.8125 -33.078125 33.5 -35.921875 36 -40.625 C 36.421875 -41.46875 35.421875 -42.25 34.71875 -41.6875 L 34.5 -41.46875 C 34.5 -42.609375 33.9375 -43.6875 32.796875 -43.96875 C 31.375 -44.390625 29.8125 -43.109375 28.671875 -42.46875 C 23.125 -39.265625 16.15625 -35.859375 10.25 -33.296875 C 10.109375 -35.921875 10.03125 -38.484375 9.953125 -41.125 L 9.953125 -41.625 C 9.953125 -41.625 9.890625 -41.6875 9.890625 -41.625 C 9.390625 -38.625 9.03125 -35.640625 8.75 -32.578125 C 8.53125 -32.515625 8.390625 -32.375 8.1875 -32.15625 L 8.390625 -38.5625 C 8.46875 -40.1875 8.390625 -41.90625 8.828125 -43.328125 C 10.171875 -47.171875 4.34375 -49.515625 2.421875 -46.03125 C 2.28125 -45.75 2.140625 -45.53125 2.0625 -45.25 C 0.5625 -44.890625 0.421875 -43.1875 0.5 -41.90625 C 0.5 -40.625 0.5625 -39.34375 0.5625 -38.0625 C 0.78125 -33.15625 1 -28.3125 1.359375 -23.46875 C 1.703125 -18.640625 2.28125 -13.796875 2.84375 -8.96875 C 3.0625 -6.828125 3.0625 -4.6875 3.90625 -2.703125 C 4.625 -1.140625 6.328125 -0.140625 7.96875 -0.359375 C 9.953125 0.359375 12.09375 -0.078125 13.796875 -1.5 C 14.296875 -1.921875 14.375 -2.625 14.234375 -3.203125 C 13.9375 -4.84375 13.296875 -6.40625 12.953125 -7.75 C 12.65625 -9.3125 12.3125 -10.890625 12.09375 -12.453125 C 11.59375 -16.4375 11.171875 -20.421875 10.8125 -24.328125 C 11.3125 -24.546875 11.875 -24.75 12.515625 -25.046875 L 13.65625 -25.46875 C 15.71875 -23.96875 17.421875 -22.046875 19.140625 -20.125 C 23.046875 -15.859375 26.8125 -11.03125 29.453125 -5.6875 C 29.453125 -4.984375 29.59375 -4.34375 29.953125 -3.703125 C 30.515625 -2.484375 31.796875 -1.703125 33.15625 -1.703125 C 35.359375 -1.703125 36.703125 -3.5625 36.5 -5.484375 C 36.140625 -9.609375 29.09375 -22.125 26.390625 -25.46875 C 30.515625 -20.921875 33.65625 -15.859375 35.78125 -10.109375 C 36.28125 -8.671875 38.484375 -3.984375 36.203125 -3.0625 C 36.0625 -2.984375 36.140625 -2.703125 36.28125 -2.78125 Z M 36.28125 -2.78125 "/></g></g></g><g fill="#2b2b2b" fill-opacity="1"><g transform="translate(126.140103, 80.276404)"><g><path d="M 0.53125 0 L 3.3125 0 L 3.3125 -7.5625 L 0.53125 -7.5625 Z M 0.53125 0 "/></g></g></g><g fill="#2b2b2b" fill-opacity="1"><g transform="translate(129.825876, 80.276404)"><g><path d="M 3.03125 0 L 5.8125 0 L 5.8125 -5.609375 L 8.75 -5.609375 L 8.75 -7.5625 L 0.09375 -7.5625 L 0.09375 -5.609375 L 3.03125 -5.609375 Z M 3.03125 0 "/></g></g></g><g fill="#2b2b2b" fill-opacity="1"><g transform="translate(138.528193, 80.276404)"><g/></g></g><g fill="#2b2b2b" fill-opacity="1"><g transform="translate(140.85158, 80.276404)"><g><path d="M 5.859375 0.171875 C 8.65625 0.171875 10.671875 -1 11.078125 -2.859375 L 8.5 -3.3125 C 8.296875 -2.359375 7.28125 -1.78125 5.9375 -1.78125 C 4.21875 -1.78125 3.140625 -2.5625 3.125 -3.78125 C 3.125 -5.015625 4.09375 -5.78125 5.625 -5.78125 C 6.703125 -5.78125 7.546875 -5.296875 7.8125 -4.515625 L 10.34375 -5.03125 C 9.84375 -6.703125 7.96875 -7.75 5.546875 -7.75 C 2.359375 -7.75 0.34375 -6.203125 0.34375 -3.78125 C 0.34375 -1.28125 2.484375 0.171875 5.859375 0.171875 Z M 5.859375 0.171875 "/></g></g></g><g fill="#2b2b2b" fill-opacity="1"><g transform="translate(151.940717, 80.276404)"><g><path d="M 5.890625 0.265625 C 9.234375 0.265625 11.453125 -1.359375 11.453125 -3.78125 C 11.453125 -6.21875 9.234375 -7.828125 5.890625 -7.828125 C 2.5625 -7.828125 0.34375 -6.21875 0.34375 -3.78125 C 0.34375 -1.359375 2.5625 0.265625 5.890625 0.265625 Z M 5.890625 -1.6875 C 4.234375 -1.6875 3.125 -2.53125 3.125 -3.78125 C 3.125 -5.03125 4.234375 -5.875 5.890625 -5.875 C 7.546875 -5.875 8.65625 -5.03125 8.65625 -3.78125 C 8.65625 -2.53125 7.546875 -1.6875 5.890625 -1.6875 Z M 5.890625 -1.6875 "/></g></g></g><g fill="#2b2b2b" fill-opacity="1"><g transform="translate(163.579031, 80.276404)"><g><path d="M 0.53125 0 L 3.15625 0 L 3.15625 -4.96875 L 3.171875 -4.96875 L 7.21875 0 L 10.578125 0 L 10.578125 -7.5625 L 7.9375 -7.5625 L 7.9375 -2.65625 L 3.875 -7.5625 L 0.53125 -7.5625 Z M 0.53125 0 "/></g></g></g><g fill="#2b2b2b" fill-opacity="1"><g transform="translate(174.530873, 80.276404)"><g><path d="M 4.96875 0.21875 C 7.78125 0.21875 9.59375 -0.84375 9.578125 -2.421875 C 9.578125 -3.796875 8.484375 -4.484375 5.921875 -4.75 L 4.515625 -4.90625 C 3.53125 -5 3.109375 -5.171875 3.125 -5.453125 C 3.140625 -5.859375 3.921875 -6.109375 5 -6.109375 C 6.171875 -6.125 7.421875 -5.78125 8.25 -5.234375 L 9.015625 -6.828125 C 8.0625 -7.4375 6.5625 -7.796875 4.984375 -7.796875 C 2.265625 -7.796875 0.421875 -6.875 0.40625 -5.25 C 0.40625 -3.90625 1.453125 -3.25 3.859375 -2.984375 L 5.25 -2.828125 C 6.390625 -2.71875 6.875 -2.5 6.875 -2.1875 C 6.875 -1.78125 6.203125 -1.53125 5.125 -1.53125 C 3.671875 -1.53125 2.03125 -2.03125 1.125 -2.734375 L 0.21875 -1.078125 C 1.21875 -0.3125 3.171875 0.21875 4.96875 0.21875 Z M 4.96875 0.21875 "/></g></g></g><g fill="#2b2b2b" fill-opacity="1"><g transform="translate(184.173135, 80.276404)"><g><path d="M 5.296875 0.171875 C 8.390625 0.171875 10.171875 -1.125 10.171875 -3.46875 L 10.171875 -7.5625 L 7.390625 -7.5625 L 7.390625 -3.625 C 7.390625 -2.421875 6.59375 -1.828125 5.296875 -1.828125 C 4 -1.828125 3.21875 -2.421875 3.21875 -3.625 L 3.21875 -7.5625 L 0.421875 -7.5625 L 0.421875 -3.46875 C 0.421875 -1.125 2.203125 0.171875 5.296875 0.171875 Z M 5.296875 0.171875 "/></g></g></g><g fill="#2b2b2b" fill-opacity="1"><g transform="translate(194.618039, 80.276404)"><g><path d="M 0.53125 0 L 7.9375 0 L 7.9375 -2.03125 L 3.3125 -2.03125 L 3.3125 -7.5625 L 0.53125 -7.5625 Z M 0.53125 0 "/></g></g></g><g fill="#2b2b2b" fill-opacity="1"><g transform="translate(202.581077, 80.276404)"><g><path d="M 3.03125 0 L 5.8125 0 L 5.8125 -5.609375 L 8.75 -5.609375 L 8.75 -7.5625 L 0.09375 -7.5625 L 0.09375 -5.609375 L 3.03125 -5.609375 Z M 3.03125 0 "/></g></g></g><g fill="#2b2b2b" fill-opacity="1"><g transform="translate(211.283392, 80.276404)"><g><path d="M 0.53125 0 L 3.3125 0 L 3.3125 -7.5625 L 0.53125 -7.5625 Z M 0.53125 0 "/></g></g></g><g fill="#2b2b2b" fill-opacity="1"><g transform="translate(214.969163, 80.276404)"><g><path d="M 0.53125 0 L 3.15625 0 L 3.15625 -4.96875 L 3.171875 -4.96875 L 7.21875 0 L 10.578125 0 L 10.578125 -7.5625 L 7.9375 -7.5625 L 7.9375 -2.65625 L 3.875 -7.5625 L 0.53125 -7.5625 Z M 0.53125 0 "/></g></g></g><g fill="#2b2b2b" fill-opacity="1"><g transform="translate(225.921011, 80.276404)"><g><path d="M 5.234375 0.171875 C 6.796875 0.171875 8.234375 -0.390625 8.9375 -1.265625 L 8.953125 -1.265625 L 9.046875 0 L 11.25 0 L 11.25 -4.359375 L 4.546875 -4.359375 L 4.546875 -2.984375 L 8.5625 -2.984375 C 8.453125 -2.1875 7.421875 -1.609375 6.046875 -1.609375 C 4.3125 -1.609375 3.140625 -2.46875 3.140625 -3.703125 C 3.140625 -5 4.171875 -5.875 5.703125 -5.875 C 6.703125 -5.875 7.546875 -5.453125 7.75 -4.8125 L 10.34375 -5.265625 C 10.03125 -6.75 8.15625 -7.75 5.703125 -7.75 C 2.5 -7.75 0.34375 -6.09375 0.34375 -3.625 C 0.34375 -1.359375 2.296875 0.171875 5.234375 0.171875 Z M 5.234375 0.171875 "/></g></g></g><g fill="#2b2b2b" fill-opacity="1"><g transform="translate(237.39035, 80.276404)"><g/></g></g><g fill="#2b2b2b" fill-opacity="1"><g transform="translate(239.713735, 80.276404)"><g><path d="M 0.375 -2.265625 L 4.90625 -2.265625 L 4.90625 -3.5625 L 0.375 -3.5625 Z M 0.375 -2.265625 "/></g></g></g><g fill="#2b2b2b" fill-opacity="1"><g transform="translate(244.846385, 80.276404)"><g/></g></g><g fill="#2b2b2b" fill-opacity="1"><g transform="translate(247.169771, 80.276404)"><g><path d="M 5.859375 0.171875 C 8.65625 0.171875 10.671875 -1 11.078125 -2.859375 L 8.5 -3.3125 C 8.296875 -2.359375 7.28125 -1.78125 5.9375 -1.78125 C 4.21875 -1.78125 3.140625 -2.5625 3.125 -3.78125 C 3.125 -5.015625 4.09375 -5.78125 5.625 -5.78125 C 6.703125 -5.78125 7.546875 -5.296875 7.8125 -4.515625 L 10.34375 -5.03125 C 9.84375 -6.703125 7.96875 -7.75 5.546875 -7.75 C 2.359375 -7.75 0.34375 -6.203125 0.34375 -3.78125 C 0.34375 -1.28125 2.484375 0.171875 5.859375 0.171875 Z M 5.859375 0.171875 "/></g></g></g><g fill="#2b2b2b" fill-opacity="1"><g transform="translate(258.258912, 80.276404)"><g><path d="M 5.296875 0.171875 C 8.390625 0.171875 10.171875 -1.125 10.171875 -3.46875 L 10.171875 -7.5625 L 7.390625 -7.5625 L 7.390625 -3.625 C 7.390625 -2.421875 6.59375 -1.828125 5.296875 -1.828125 C 4 -1.828125 3.21875 -2.421875 3.21875 -3.625 L 3.21875 -7.5625 L 0.421875 -7.5625 L 0.421875 -3.46875 C 0.421875 -1.125 2.203125 0.171875 5.296875 0.171875 Z M 5.296875 0.171875 "/></g></g></g><g fill="#2b2b2b" fill-opacity="1"><g transform="translate(268.703822, 80.276404)"><g><path d="M 4.96875 0.21875 C 7.78125 0.21875 9.59375 -0.84375 9.578125 -2.421875 C 9.578125 -3.796875 8.484375 -4.484375 5.921875 -4.75 L 4.515625 -4.90625 C 3.53125 -5 3.109375 -5.171875 3.125 -5.453125 C 3.140625 -5.859375 3.921875 -6.109375 5 -6.109375 C 6.171875 -6.125 7.421875 -5.78125 8.25 -5.234375 L 9.015625 -6.828125 C 8.0625 -7.4375 6.5625 -7.796875 4.984375 -7.796875 C 2.265625 -7.796875 0.421875 -6.875 0.40625 -5.25 C 0.40625 -3.90625 1.453125 -3.25 3.859375 -2.984375 L 5.25 -2.828125 C 6.390625 -2.71875 6.875 -2.5 6.875 -2.1875 C 6.875 -1.78125 6.203125 -1.53125 5.125 -1.53125 C 3.671875 -1.53125 2.03125 -2.03125 1.125 -2.734375 L 0.21875 -1.078125 C 1.21875 -0.3125 3.171875 0.21875 4.96875 0.21875 Z M 4.96875 0.21875 "/></g></g></g><g fill="#2b2b2b" fill-opacity="1"><g transform="translate(278.34609, 80.276404)"><g><path d="M 3.03125 0 L 5.8125 0 L 5.8125 -5.609375 L 8.75 -5.609375 L 8.75 -7.5625 L 0.09375 -7.5625 L 0.09375 -5.609375 L 3.03125 -5.609375 Z M 3.03125 0 "/></g></g></g><g fill="#2b2b2b" fill-opacity="1"><g transform="translate(287.048412, 80.276404)"><g><path d="M 5.890625 0.265625 C 9.234375 0.265625 11.453125 -1.359375 11.453125 -3.78125 C 11.453125 -6.21875 9.234375 -7.828125 5.890625 -7.828125 C 2.5625 -7.828125 0.34375 -6.21875 0.34375 -3.78125 C 0.34375 -1.359375 2.5625 0.265625 5.890625 0.265625 Z M 5.890625 -1.6875 C 4.234375 -1.6875 3.125 -2.53125 3.125 -3.78125 C 3.125 -5.03125 4.234375 -5.875 5.890625 -5.875 C 7.546875 -5.875 8.65625 -5.03125 8.65625 -3.78125 C 8.65625 -2.53125 7.546875 -1.6875 5.890625 -1.6875 Z M 5.890625 -1.6875 "/></g></g></g><g fill="#2b2b2b" fill-opacity="1"><g transform="translate(298.686725, 80.276404)"><g><path d="M 0.53125 0 L 3.15625 0 L 3.15625 -4.703125 L 3.171875 -4.703125 L 5.625 0 L 7.984375 0 L 10.34375 -4.71875 L 10.375 -4.71875 L 10.375 0 L 13 0 L 13 -7.5625 L 9.359375 -7.5625 L 6.765625 -2.46875 L 6.75 -2.46875 L 4.125 -7.5625 L 0.53125 -7.5625 Z M 0.53125 0 "/></g></g></g><g fill="#2b2b2b" fill-opacity="1"><g transform="translate(312.067628, 80.276404)"><g/></g></g><g fill="#2b2b2b" fill-opacity="1"><g transform="translate(314.391014, 80.276404)"><g><path d="M 4.96875 0.21875 C 7.78125 0.21875 9.59375 -0.84375 9.578125 -2.421875 C 9.578125 -3.796875 8.484375 -4.484375 5.921875 -4.75 L 4.515625 -4.90625 C 3.53125 -5 3.109375 -5.171875 3.125 -5.453125 C 3.140625 -5.859375 3.921875 -6.109375 5 -6.109375 C 6.171875 -6.125 7.421875 -5.78125 8.25 -5.234375 L 9.015625 -6.828125 C 8.0625 -7.4375 6.5625 -7.796875 4.984375 -7.796875 C 2.265625 -7.796875 0.421875 -6.875 0.40625 -5.25 C 0.40625 -3.90625 1.453125 -3.25 3.859375 -2.984375 L 5.25 -2.828125 C 6.390625 -2.71875 6.875 -2.5 6.875 -2.1875 C 6.875 -1.78125 6.203125 -1.53125 5.125 -1.53125 C 3.671875 -1.53125 2.03125 -2.03125 1.125 -2.734375 L 0.21875 -1.078125 C 1.21875 -0.3125 3.171875 0.21875 4.96875 0.21875 Z M 4.96875 0.21875 "/></g></g></g><g fill="#2b2b2b" fill-opacity="1"><g transform="translate(324.03327, 80.276404)"><g><path d="M 5.890625 0.265625 C 9.234375 0.265625 11.453125 -1.359375 11.453125 -3.78125 C 11.453125 -6.21875 9.234375 -7.828125 5.890625 -7.828125 C 2.5625 -7.828125 0.34375 -6.21875 0.34375 -3.78125 C 0.34375 -1.359375 2.5625 0.265625 5.890625 0.265625 Z M 5.890625 -1.6875 C 4.234375 -1.6875 3.125 -2.53125 3.125 -3.78125 C 3.125 -5.03125 4.234375 -5.875 5.890625 -5.875 C 7.546875 -5.875 8.65625 -5.03125 8.65625 -3.78125 C 8.65625 -2.53125 7.546875 -1.6875 5.890625 -1.6875 Z M 5.890625 -1.6875 "/></g></g></g><g fill="#2b2b2b" fill-opacity="1"><g transform="translate(335.671596, 80.276404)"><g><path d="M 0.53125 0 L 7.9375 0 L 7.9375 -2.03125 L 3.3125 -2.03125 L 3.3125 -7.5625 L 0.53125 -7.5625 Z M 0.53125 0 "/></g></g></g><g fill="#2b2b2b" fill-opacity="1"><g transform="translate(343.634628, 80.276404)"><g><path d="M 5.296875 0.171875 C 8.390625 0.171875 10.171875 -1.125 10.171875 -3.46875 L 10.171875 -7.5625 L 7.390625 -7.5625 L 7.390625 -3.625 C 7.390625 -2.421875 6.59375 -1.828125 5.296875 -1.828125 C 4 -1.828125 3.21875 -2.421875 3.21875 -3.625 L 3.21875 -7.5625 L 0.421875 -7.5625 L 0.421875 -3.46875 C 0.421875 -1.125 2.203125 0.171875 5.296875 0.171875 Z M 5.296875 0.171875 "/></g></g></g><g fill="#2b2b2b" fill-opacity="1"><g transform="translate(354.079538, 80.276404)"><g><path d="M 3.03125 0 L 5.8125 0 L 5.8125 -5.609375 L 8.75 -5.609375 L 8.75 -7.5625 L 0.09375 -7.5625 L 0.09375 -5.609375 L 3.03125 -5.609375 Z M 3.03125 0 "/></g></g></g><g fill="#2b2b2b" fill-opacity="1"><g transform="translate(362.781859, 80.276404)"><g><path d="M 0.53125 0 L 3.3125 0 L 3.3125 -7.5625 L 0.53125 -7.5625 Z M 0.53125 0 "/></g></g></g><g fill="#2b2b2b" fill-opacity="1"><g transform="translate(366.467636, 80.276404)"><g><path d="M 5.890625 0.265625 C 9.234375 0.265625 11.453125 -1.359375 11.453125 -3.78125 C 11.453125 -6.21875 9.234375 -7.828125 5.890625 -7.828125 C 2.5625 -7.828125 0.34375 -6.21875 0.34375 -3.78125 C 0.34375 -1.359375 2.5625 0.265625 5.890625 0.265625 Z M 5.890625 -1.6875 C 4.234375 -1.6875 3.125 -2.53125 3.125 -3.78125 C 3.125 -5.03125 4.234375 -5.875 5.890625 -5.875 C 7.546875 -5.875 8.65625 -5.03125 8.65625 -3.78125 C 8.65625 -2.53125 7.546875 -1.6875 5.890625 -1.6875 Z M 5.890625 -1.6875 "/></g></g></g><g fill="#2b2b2b" fill-opacity="1"><g transform="translate(378.105961, 80.276404)"><g><path d="M 0.53125 0 L 3.15625 0 L 3.15625 -4.96875 L 3.171875 -4.96875 L 7.21875 0 L 10.578125 0 L 10.578125 -7.5625 L 7.9375 -7.5625 L 7.9375 -2.65625 L 3.875 -7.5625 L 0.53125 -7.5625 Z M 0.53125 0 "/></g></g></g><g fill="#2b2b2b" fill-opacity="1"><g transform="translate(389.057809, 80.276404)"><g><path d="M 4.96875 0.21875 C 7.78125 0.21875 9.59375 -0.84375 9.578125 -2.421875 C 9.578125 -3.796875 8.484375 -4.484375 5.921875 -4.75 L 4.515625 -4.90625 C 3.53125 -5 3.109375 -5.171875 3.125 -5.453125 C 3.140625 -5.859375 3.921875 -6.109375 5 -6.109375 C 6.171875 -6.125 7.421875 -5.78125 8.25 -5.234375 L 9.015625 -6.828125 C 8.0625 -7.4375 6.5625 -7.796875 4.984375 -7.796875 C 2.265625 -7.796875 0.421875 -6.875 0.40625 -5.25 C 0.40625 -3.90625 1.453125 -3.25 3.859375 -2.984375 L 5.25 -2.828125 C 6.390625 -2.71875 6.875 -2.5 6.875 -2.1875 C 6.875 -1.78125 6.203125 -1.53125 5.125 -1.53125 C 3.671875 -1.53125 2.03125 -2.03125 1.125 -2.734375 L 0.21875 -1.078125 C 1.21875 -0.3125 3.171875 0.21875 4.96875 0.21875 Z M 4.96875 0.21875 "/></g></g></g></svg>