<svg xmlns="http://www.w3.org/2000/svg" xmlns:xlink="http://www.w3.org/1999/xlink" width="275" zoomAndPan="magnify" viewBox="0 0 206.25 149.999998" height="200" preserveAspectRatio="xMidYMid meet" version="1.0"><defs><g/></defs><g fill="#2b2b2b" fill-opacity="1"><g transform="translate(38.23004, 104.997021)"><g><path d="M 60.34375 0.421875 C 62.984375 0.421875 65.21875 -1.25 66.75 -3.34375 C 65.625 -20.4375 64.09375 -37.6875 61.3125 -54.640625 C 60.0625 -62.984375 58.671875 -71.46875 56.453125 -79.53125 C 55.75 -82.171875 54.921875 -84.8125 54.375 -87.453125 C 54.09375 -87.734375 53.8125 -88.015625 53.390625 -88.15625 C 51.03125 -89.828125 46.859375 -90.109375 45.1875 -87.046875 C 45.1875 -86.90625 45.046875 -86.90625 45.046875 -86.765625 C 44.078125 -86.203125 43.25 -85.234375 42.6875 -84.265625 C 41.15625 -81.484375 42.40625 -78.84375 43.109375 -76.203125 C 44.5 -71.1875 45.328125 -66.1875 46.296875 -61.1875 C 47.546875 -54.09375 49.078125 -46.71875 49.78125 -39.765625 L 47.546875 -44.078125 C 47.546875 -44.5 47.546875 -44.90625 47.28125 -45.46875 C 44.5 -51.171875 41.578125 -56.734375 38.375 -62.15625 C 34.625 -68.96875 30.734375 -75.640625 26 -81.90625 C 23.359375 -85.375 15.4375 -93.578125 11.125 -87.875 C 10.421875 -86.90625 10.015625 -85.796875 10.015625 -84.671875 C 9.03125 -84.546875 8.0625 -83.984375 7.375 -83.421875 C 6.953125 -77.453125 7.234375 -71.328125 7.375 -65.21875 C 7.640625 -55.75 7.78125 -46.15625 8.203125 -36.703125 C 8.625 -25.03125 9.03125 -13.34375 9.734375 -1.671875 C 10.703125 -0.421875 11.953125 0.5625 13.625 0.96875 C 16.6875 1.953125 19.890625 0.828125 21.546875 -1.953125 C 27.25 -2.78125 25.71875 -10.84375 25.578125 -15.15625 C 25.453125 -20.71875 25.3125 -26.28125 25.03125 -31.84375 C 25.03125 -41.296875 25.171875 -50.75 25.03125 -60.203125 C 25.71875 -59.234375 26.421875 -58.125 27.25 -57.140625 L 51.453125 -13.90625 L 52.28125 -9.171875 C 52.984375 -5.5625 53.8125 -1.25 57.5625 0.421875 C 58.40625 0.828125 59.515625 0.96875 60.34375 0.421875 Z M 68.140625 -4.734375 C 68.265625 -6.671875 68.140625 -9.734375 68 -10.703125 C 68.140625 -35.3125 65.078125 -59.921875 60.0625 -84.125 C 59.796875 -85.515625 58.125 -85.515625 57.421875 -84.671875 C 56.875 -84.125 56.875 -83.5625 57.015625 -83.15625 C 62.703125 -57.28125 65.765625 -30.875 67.578125 -4.3125 C 67.71875 -4.59375 67.859375 -4.734375 68.140625 -4.734375 Z M 7.234375 -14.875 C 7.78125 -8.90625 8.34375 -9.171875 8.34375 -9.171875 L 7.09375 -40.46875 C 6.8125 -50.203125 6.53125 -59.921875 6.390625 -69.53125 C 6.25 -73.96875 6.125 -78.421875 6.25 -82.875 C 5.28125 -80.640625 5 -78 5.140625 -75.640625 C 5.28125 -65.625 5.421875 -55.625 5.84375 -45.75 C 6.25 -35.734375 6.390625 -24.75 7.234375 -14.875 Z M 22.796875 -21.6875 C 22.9375 -20.015625 23.078125 -18.5 23.078125 -16.828125 C 23.359375 -14.046875 23.5 -11.265625 23.640625 -8.625 C 23.78125 -7.375 23.359375 -5.28125 22.53125 -3.890625 C 23.359375 -7.375 21.96875 -10.5625 21.96875 -12.796875 L 22.109375 -21.140625 C 22.25 -21.28125 22.390625 -21.28125 22.390625 -21.28125 Z M 22.796875 -21.6875 "/></g></g></g><g fill="#2b2b2b" fill-opacity="1"><g transform="translate(96.488288, 104.997021)"><g><path d="M 66.609375 -50.46875 C 66.46875 -53.8125 66.46875 -57.140625 66.609375 -60.625 C 67.15625 -67.15625 68.546875 -73.96875 67.71875 -80.515625 C 67.296875 -84.265625 64.9375 -87.328125 60.90625 -87.328125 C 57.28125 -87.328125 54.09375 -84.265625 54.09375 -80.515625 C 54.234375 -78.140625 54.234375 -75.78125 54.234375 -73.421875 L 53.53125 -74.109375 C 50.75 -76.609375 47.6875 -78.703125 44.640625 -80.640625 C 38.09375 -84.953125 31.28125 -88.015625 23.78125 -90.234375 C 22.9375 -90.515625 22.25 -90.515625 21.6875 -90.375 C 18.765625 -91.359375 15.71875 -92.1875 12.65625 -92.46875 C 7.921875 -92.890625 3.890625 -89.96875 2.78125 -85.375 C 1.671875 -80.78125 4.171875 -76.75 6.671875 -73.28125 C 11.8125 -66.609375 17.796875 -60.765625 24.328125 -55.484375 L 26.421875 -53.8125 C 28.359375 -51.859375 30.3125 -49.921875 32.125 -47.828125 C 36.84375 -42.96875 41.296875 -37.953125 45.609375 -32.8125 C 47 -31.140625 48.390625 -29.484375 49.640625 -27.8125 C 49.921875 -26.96875 50.328125 -26.28125 50.609375 -25.578125 C 51.171875 -24.46875 52.421875 -21.828125 51.71875 -20.296875 C 51.71875 -19.890625 51.71875 -19.46875 51.3125 -19.046875 C 50.203125 -17.375 47.421875 -17.109375 45.609375 -16.96875 C 42.546875 -16.6875 39.625 -16.6875 36.703125 -16.96875 C 35.046875 -17.109375 33.375 -17.375 31.703125 -17.9375 C 30.03125 -19.1875 28.5 -20.71875 27.109375 -22.109375 C 24.609375 -24.75 22.9375 -28.21875 21.6875 -31.5625 C 18.5 -40.734375 18.078125 -50.609375 15.15625 -59.796875 C 14.046875 -63.125 11.265625 -64.375 7.921875 -63.96875 C 5.140625 -63.546875 3.0625 -60.90625 2.5 -58.40625 C 1.671875 -54.375 2.5 -50.0625 3.0625 -46.15625 C 3.609375 -41.71875 4.171875 -37.265625 5.28125 -32.953125 C 7.375 -25.3125 8.90625 -17.515625 9.734375 -9.734375 C 10.015625 -8.34375 10.421875 -7.09375 11.265625 -6.125 C 11.6875 -3.609375 13.078125 -1.25 14.59375 0.28125 C 15.984375 1.671875 18.21875 1.671875 19.609375 0.28125 C 21.40625 -1.25 22.390625 -3.46875 22.9375 -5.84375 C 25.578125 -4.171875 28.5 -2.921875 31.5625 -2.21875 C 36.015625 -0.96875 41.296875 -0.421875 46.03125 -1.109375 L 46.4375 -1.109375 C 55.203125 -1.53125 64.65625 -8.0625 64.9375 -17.109375 C 65.484375 -20.71875 64.65625 -24.46875 63.125 -27.953125 C 62.296875 -31.703125 60.34375 -35.171875 57.84375 -38.375 C 54.234375 -42.96875 50.0625 -47.28125 46.03125 -51.59375 C 41.859375 -56.171875 37.40625 -60.625 32.953125 -64.9375 L 27.25 -70.359375 C 30.875 -69.53125 34.625 -68.265625 38.09375 -66.75 C 44.765625 -63.6875 50.890625 -59.375 54.921875 -53.390625 C 55.0625 -53.390625 55.0625 -53.25 55.203125 -53.25 C 56.03125 -46.71875 58.40625 -37.546875 65.21875 -39.21875 C 67.15625 -39.765625 68.265625 -41.859375 67.71875 -43.65625 C 67.296875 -46.03125 66.75 -48.109375 66.609375 -50.46875 Z M 66.609375 -50.46875 "/></g></g></g><g fill="#2b2b2b" fill-opacity="1"><g transform="translate(50.478298, 133.992829)"><g><path d="M 5.921875 0 L 11.375 0 L 11.375 -10.953125 L 17.109375 -10.953125 L 17.109375 -14.78125 L 0.1875 -14.78125 L 0.1875 -10.953125 L 5.921875 -10.953125 Z M 5.921875 0 "/></g></g></g><g fill="#2b2b2b" fill-opacity="1"><g transform="translate(76.758607, 133.992829)"><g><path d="M 1.03125 0 L 16.859375 0 L 16.859375 -3.34375 L 6.3125 -3.34375 L 6.3125 -6.09375 L 15.828125 -6.09375 L 15.828125 -8.953125 L 6.3125 -8.953125 L 6.3125 -11.4375 L 16.65625 -11.4375 L 16.65625 -14.78125 L 1.03125 -14.78125 Z M 1.03125 0 "/></g></g></g><g fill="#2b2b2b" fill-opacity="1"><g transform="translate(103.018278, 133.992829)"><g><path d="M 11.453125 0.34375 C 16.921875 0.34375 20.875 -1.9375 21.65625 -5.578125 L 16.609375 -6.453125 C 16.203125 -4.625 14.234375 -3.46875 11.59375 -3.46875 C 8.25 -3.46875 6.125 -5 6.109375 -7.390625 C 6.109375 -9.796875 8.015625 -11.3125 10.984375 -11.3125 C 13.09375 -11.3125 14.765625 -10.34375 15.28125 -8.8125 L 20.234375 -9.828125 C 19.234375 -13.09375 15.578125 -15.15625 10.84375 -15.15625 C 4.609375 -15.15625 0.65625 -12.140625 0.65625 -7.390625 C 0.65625 -2.5 4.84375 0.34375 11.453125 0.34375 Z M 11.453125 0.34375 "/></g></g></g><g fill="#2b2b2b" fill-opacity="1"><g transform="translate(133.963539, 133.992829)"><g><path d="M 1.03125 0 L 6.484375 0 L 6.484375 -5.875 L 14.546875 -5.875 L 14.546875 0 L 20.015625 0 L 20.015625 -14.78125 L 14.546875 -14.78125 L 14.546875 -9.5625 L 6.484375 -9.5625 L 6.484375 -14.78125 L 1.03125 -14.78125 Z M 1.03125 0 "/></g></g></g></svg>